<?xml version="1.0" standalone="no"?>
<!DOCTYPE svg PUBLIC "-//W3C//DTD SVG 20010904//EN"
 "http://www.w3.org/TR/2001/REC-SVG-20010904/DTD/svg10.dtd">
<svg version="1.0" xmlns="http://www.w3.org/2000/svg"
 width="257.000000pt" height="98.000000pt" viewBox="0 0 257.000000 98.000000"
 preserveAspectRatio="xMidYMid meet">

<g transform="translate(0.000000,98.000000) scale(0.100000,-0.100000)"
fill="#000000" stroke="none">
<path d="M505 757 c-3 -7 -4 -125 -3 -262 l3 -250 34 -3 c20 -2 37 2 42 10 14
22 11 492 -3 506 -16 16 -67 15 -73 -1z"/>
<path d="M672 762 c-9 -6 -12 -66 -10 -263 l3 -254 45 0 45 0 3 108 3 107 192
0 c142 0 198 -3 211 -13 14 -10 18 -30 19 -107 l2 -95 45 0 45 0 3 109 c2 94
0 113 -17 142 -16 27 -18 40 -11 60 29 75 0 152 -68 186 -44 22 -61 23 -272
26 -124 1 -231 -1 -238 -6z m474 -116 c18 -25 18 -37 0 -62 -13 -17 -30 -19
-200 -22 l-186 -3 0 49 c0 27 3 52 8 56 4 4 87 6 185 4 163 -3 180 -5 193 -22z"/>
<path d="M1362 762 c-9 -7 -12 -66 -10 -263 l3 -254 40 0 40 0 3 249 c2 175
-1 253 -9 262 -13 15 -47 18 -67 6z"/>
<path d="M1607 756 c-67 -24 -97 -66 -97 -136 0 -64 25 -106 78 -132 43 -21
65 -23 238 -28 171 -4 194 -7 213 -24 25 -22 27 -58 6 -80 -8 -8 -40 -18 -70
-21 -79 -10 -306 -1 -331 13 -12 6 -27 25 -33 42 -10 29 -13 31 -53 28 l-43
-3 2 -40 c3 -43 24 -77 67 -109 25 -19 43 -21 244 -24 192 -2 221 0 251 15 72
37 101 126 66 204 -35 76 -113 99 -345 99 -153 0 -183 9 -188 55 -6 50 12 55
213 55 193 0 225 -7 225 -51 0 -25 40 -44 74 -35 22 5 26 12 26 45 0 57 -35
102 -95 123 -65 22 -388 25 -448 4z"/>
</g>
</svg>
